<mxfile host="app.diagrams.net" modified="2023-05-16T16:35:53.772Z" agent="Mozilla/5.0 (Macintosh; Intel Mac OS X 10_15_7) AppleWebKit/537.36 (KHTML, like Gecko) Chrome/111.0.0.0 Safari/537.36" etag="S8yWSCoGTzKQCLc5JfpH" version="21.3.2" type="device">
  <diagram name="Page-1" id="wjgw9uF99OB0Vimc_6ms">
    <mxGraphModel dx="1242" dy="738" grid="1" gridSize="10" guides="1" tooltips="1" connect="1" arrows="1" fold="1" page="1" pageScale="1" pageWidth="850" pageHeight="1100" math="0" shadow="0">
      <root>
        <mxCell id="0" />
        <mxCell id="1" parent="0" />
        <mxCell id="HodP6HeMuEoSwsgSz1am-1" value="Client" style="swimlane;horizontal=0;whiteSpace=wrap;html=1;" vertex="1" parent="1">
          <mxGeometry x="50" y="90" width="630" height="200" as="geometry" />
        </mxCell>
        <mxCell id="HodP6HeMuEoSwsgSz1am-5" value="Request" style="strokeWidth=2;html=1;shape=mxgraph.flowchart.terminator;whiteSpace=wrap;" vertex="1" parent="HodP6HeMuEoSwsgSz1am-1">
          <mxGeometry x="50" y="30" width="100" height="60" as="geometry" />
        </mxCell>
        <mxCell id="HodP6HeMuEoSwsgSz1am-12" value="Game Settings Data" style="strokeWidth=2;html=1;shape=mxgraph.flowchart.terminator;whiteSpace=wrap;" vertex="1" parent="HodP6HeMuEoSwsgSz1am-1">
          <mxGeometry x="480" y="30" width="100" height="60" as="geometry" />
        </mxCell>
        <mxCell id="HodP6HeMuEoSwsgSz1am-13" value="&lt;p style=&quot;margin: 0px; padding: 0px; border: 0px none; line-height: 0px; overflow-wrap: break-word; font-family: Arial;&quot;&gt;&lt;b&gt;HTTP 200 OK&lt;/b&gt;&lt;/p&gt;&lt;p style=&quot;margin: 0px; padding: 0px; border: 0px none; line-height: 0px; overflow-wrap: break-word; font-family: Arial;&quot;&gt;&lt;span style=&quot;line-height: 14px;&quot;&gt;&lt;br&gt;&lt;/span&gt;&lt;/p&gt;&lt;p style=&quot;margin: 0px; padding: 0px; border: 0px none; line-height: 0px; overflow-wrap: break-word; font-family: Arial;&quot;&gt;&lt;span style=&quot;line-height: 14px;&quot;&gt;application/json body&amp;nbsp;&lt;/span&gt;&lt;/p&gt;&lt;p style=&quot;margin: 0px; padding: 0px; border: 0px none; line-height: 0px; overflow-wrap: break-word; font-family: Arial;&quot;&gt;&lt;span style=&quot;line-height: 14px;&quot;&gt;&amp;nbsp;&lt;/span&gt;&lt;/p&gt;" style="rounded=0;whiteSpace=wrap;html=1;" vertex="1" parent="HodP6HeMuEoSwsgSz1am-1">
          <mxGeometry x="470" y="130" width="120" height="60" as="geometry" />
        </mxCell>
        <mxCell id="HodP6HeMuEoSwsgSz1am-15" value="" style="endArrow=classic;html=1;rounded=0;entryX=0.5;entryY=1;entryDx=0;entryDy=0;entryPerimeter=0;exitX=0.5;exitY=0;exitDx=0;exitDy=0;" edge="1" parent="HodP6HeMuEoSwsgSz1am-1" source="HodP6HeMuEoSwsgSz1am-13" target="HodP6HeMuEoSwsgSz1am-12">
          <mxGeometry width="50" height="50" relative="1" as="geometry">
            <mxPoint x="350" y="340" as="sourcePoint" />
            <mxPoint x="400" y="290" as="targetPoint" />
          </mxGeometry>
        </mxCell>
        <mxCell id="HodP6HeMuEoSwsgSz1am-2" value="Slot-Engine API" style="swimlane;horizontal=0;whiteSpace=wrap;html=1;" vertex="1" parent="1">
          <mxGeometry x="50" y="290" width="630" height="200" as="geometry" />
        </mxCell>
        <mxCell id="HodP6HeMuEoSwsgSz1am-6" value="/slot/{gameId}/start" style="rounded=0;whiteSpace=wrap;html=1;" vertex="1" parent="HodP6HeMuEoSwsgSz1am-2">
          <mxGeometry x="40" y="80" width="120" height="60" as="geometry" />
        </mxCell>
        <mxCell id="HodP6HeMuEoSwsgSz1am-10" value="Fetch Game Settings" style="rounded=0;whiteSpace=wrap;html=1;" vertex="1" parent="HodP6HeMuEoSwsgSz1am-2">
          <mxGeometry x="470" y="80" width="120" height="60" as="geometry" />
        </mxCell>
        <mxCell id="HodP6HeMuEoSwsgSz1am-11" value="" style="endArrow=classic;html=1;rounded=0;exitX=1;exitY=0.5;exitDx=0;exitDy=0;entryX=0;entryY=0.5;entryDx=0;entryDy=0;" edge="1" parent="HodP6HeMuEoSwsgSz1am-2" source="HodP6HeMuEoSwsgSz1am-6" target="HodP6HeMuEoSwsgSz1am-10">
          <mxGeometry width="50" height="50" relative="1" as="geometry">
            <mxPoint x="350" y="140" as="sourcePoint" />
            <mxPoint x="400" y="90" as="targetPoint" />
          </mxGeometry>
        </mxCell>
        <mxCell id="HodP6HeMuEoSwsgSz1am-7" style="edgeStyle=orthogonalEdgeStyle;rounded=0;orthogonalLoop=1;jettySize=auto;html=1;exitX=0.5;exitY=1;exitDx=0;exitDy=0;exitPerimeter=0;entryX=0.5;entryY=0;entryDx=0;entryDy=0;" edge="1" parent="1" source="HodP6HeMuEoSwsgSz1am-5" target="HodP6HeMuEoSwsgSz1am-6">
          <mxGeometry relative="1" as="geometry" />
        </mxCell>
        <mxCell id="HodP6HeMuEoSwsgSz1am-8" value="GameID" style="edgeLabel;html=1;align=center;verticalAlign=middle;resizable=0;points=[];" vertex="1" connectable="0" parent="HodP6HeMuEoSwsgSz1am-7">
          <mxGeometry x="-0.2105" y="1" relative="1" as="geometry">
            <mxPoint as="offset" />
          </mxGeometry>
        </mxCell>
        <mxCell id="HodP6HeMuEoSwsgSz1am-14" value="" style="endArrow=classic;html=1;rounded=0;entryX=0.5;entryY=1;entryDx=0;entryDy=0;exitX=0.5;exitY=0;exitDx=0;exitDy=0;" edge="1" parent="1" source="HodP6HeMuEoSwsgSz1am-10" target="HodP6HeMuEoSwsgSz1am-13">
          <mxGeometry width="50" height="50" relative="1" as="geometry">
            <mxPoint x="400" y="430" as="sourcePoint" />
            <mxPoint x="450" y="380" as="targetPoint" />
          </mxGeometry>
        </mxCell>
      </root>
    </mxGraphModel>
  </diagram>
</mxfile>
